<?xml version="1.0" encoding="UTF-8"?>
<svg width="24px" height="384px" viewBox="0 0 24 384" version="1.1" xmlns="http://www.w3.org/2000/svg" xmlns:xlink="http://www.w3.org/1999/xlink">
    <!-- Generator: sketchtool 61.2 (101010) - https://sketch.com -->
    <title>F33E2A9A-1E1B-4CA4-8F01-9A65FAF9A1AB</title>
    <desc>Created with sketchtool.</desc>
    <defs>
        <path d="M13.2928932,5.29289322 C13.6834175,4.90236893 14.3165825,4.90236893 14.7071068,5.29289322 L14.7071068,5.29289322 L20.7071068,11.2928932 C20.7355731,11.3213595 20.7623312,11.3515341 20.787214,11.3832499 C20.7927155,11.3901576 20.7982466,11.397397 20.8036654,11.4046934 C20.8215099,11.4288693 20.8382813,11.453725 20.8539326,11.4793398 C20.8613931,11.4913869 20.8685012,11.5036056 20.8753288,11.5159379 C20.8862061,11.5357061 20.8966234,11.5561086 20.9063462,11.5769009 C20.914321,11.5939015 20.9218036,11.6112044 20.9287745,11.628664 C20.9366843,11.6484208 20.9438775,11.6682023 20.9504533,11.6882636 C20.9552713,11.7031487 20.9599023,11.7185367 20.9641549,11.734007 C20.9701664,11.7555635 20.9753602,11.7772539 20.9798348,11.7992059 C20.9832978,11.8166247 20.9863719,11.834051 20.9889822,11.8515331 C20.9962388,11.8996379 21,11.9493797 21,12 L20.996384,11.9147758 C20.997855,11.9320769 20.9988772,11.949409 20.9994506,11.9667532 L21,12 C21,12.0111266 20.9998183,12.0222108 20.9994576,12.0332497 C20.9989053,12.0502664 20.9978436,12.0682655 20.9962979,12.0862308 C20.9944666,12.107886 20.9920328,12.1285247 20.9889807,12.1489612 C20.9863719,12.165949 20.9832978,12.1833753 20.9797599,12.2007258 C20.9753602,12.2227461 20.9701664,12.2444365 20.964279,12.2658396 C20.9599023,12.2814633 20.9552713,12.2968513 20.9502619,12.3121425 C20.9438775,12.3317977 20.9366843,12.3515792 20.928896,12.3710585 C20.9218036,12.3887956 20.914321,12.4060985 20.9063266,12.4232215 C20.8966234,12.4438914 20.8862061,12.4642939 20.8751242,12.484277 C20.8685012,12.4963944 20.8613931,12.5086131 20.8540045,12.5207088 C20.8382813,12.546275 20.8215099,12.5711307 20.8036865,12.5951593 C20.774687,12.6343256 20.7425008,12.6717127 20.7071068,12.7071068 L20.787214,12.6167501 C20.7849289,12.6196628 20.7826279,12.6225624 20.7803112,12.625449 L20.7071068,12.7071068 L14.7071068,18.7071068 C14.3165825,19.0976311 13.6834175,19.0976311 13.2928932,18.7071068 C12.9023689,18.3165825 12.9023689,17.6834175 13.2928932,17.2928932 L13.2928932,17.2928932 L17.585,12.999 L4,13 C3.48716416,13 3.06449284,12.6139598 3.00672773,12.1166211 L3,12 C3,11.4477153 3.44771525,11 4,11 L4,11 L17.585,10.999 L13.2928932,6.70710678 C12.9324093,6.34662282 12.9046797,5.77939176 13.2097046,5.38710056 Z" id="path-1"></path>
        <path d="M9.29289322,5.29289322 C9.68341751,4.90236893 10.3165825,4.90236893 10.7071068,5.29289322 C11.0976311,5.68341751 11.0976311,6.31658249 10.7071068,6.70710678 L10.7071068,6.70710678 L6.414,11 L20,11 C20.5128358,11 20.9355072,11.3860402 20.9932723,11.8833789 L21,12 C21,12.5522847 20.5522847,13 20,13 L20,13 L6.414,13 L10.7071068,17.2928932 C11.0675907,17.6533772 11.0953203,18.2206082 10.7902954,18.6128994 L10.7071068,18.7071068 C10.3165825,19.0976311 9.68341751,19.0976311 9.29289322,18.7071068 L9.29289322,18.7071068 L3.29289322,12.7071068 L3.29289322,12.7071068 L3.21968877,12.625449 C3.2173721,12.6225624 3.21507113,12.6196628 3.21278596,12.6167501 C3.20728448,12.6098424 3.20175344,12.602603 3.19633458,12.5953066 C3.17849009,12.5711307 3.1617187,12.546275 3.14606743,12.5206602 C3.13860692,12.5086131 3.13149883,12.4963944 3.12467117,12.4840621 C3.11379392,12.4642939 3.10337664,12.4438914 3.09365378,12.4230991 C3.08567905,12.4060985 3.07819642,12.3887956 3.07122549,12.371336 C3.06331574,12.3515792 3.05612249,12.3317977 3.04954668,12.3117364 C3.04472872,12.2968513 3.04009773,12.2814633 3.03584514,12.265993 C3.02983363,12.2444365 3.0246398,12.2227461 3.02016515,12.2007941 C3.01670217,12.1833753 3.01362808,12.165949 3.0110178,12.1484669 C3.00376119,12.1003621 3,12.0506203 3,12 L3.00396641,12.0892501 C3.00189498,12.0659949 3.00063489,12.042681 3.00018615,12.0193545 L3,12 C3,11.9935938 3.00006024,11.9872016 3.00018018,11.980824 C3.00059932,11.9579802 3.0018656,11.9343349 3.00396641,11.9107499 C3.00576612,11.890153 3.00811223,11.8705042 3.01101934,11.8510388 C3.01362808,11.834051 3.01670217,11.8166247 3.02024007,11.7992742 C3.0246398,11.7772539 3.02983363,11.7555635 3.03572097,11.7341604 C3.04009773,11.7185367 3.04472872,11.7031487 3.04973809,11.6878575 C3.05612249,11.6682023 3.06331574,11.6484208 3.07110396,11.6289415 C3.07819642,11.6112044 3.08567905,11.5939015 3.09367336,11.5767785 C3.10337664,11.5561086 3.11379392,11.5357061 3.12487577,11.515723 C3.13149883,11.5036056 3.13860692,11.4913869 3.14599545,11.4792912 C3.1617187,11.453725 3.17849009,11.4288693 3.19631351,11.4048407 C3.22531295,11.3656744 3.25749917,11.3282873 3.29289322,11.2928932 L3.21278596,11.3832499 C3.23766884,11.3515341 3.26442691,11.3213595 3.29289322,11.2928932 Z" id="path-3"></path>
        <path d="M19,17 C19.5522847,17 20,17.4477153 20,18 C20,18.5522847 19.5522847,19 19,19 L19,19 L6,19 C5.44771525,19 5,18.5522847 5,18 C5,17.4477153 5.44771525,17 6,17 L6,17 Z M19,11 C19.5522847,11 20,11.4477153 20,12 C20,12.5522847 19.5522847,13 19,13 L19,13 L6,13 C5.44771525,13 5,12.5522847 5,12 C5,11.4477153 5.44771525,11 6,11 L6,11 Z M19,5 C19.5522847,5 20,5.44771525 20,6 C20,6.55228475 19.5522847,7 19,7 L19,7 L6,7 C5.44771525,7 5,6.55228475 5,6 C5,5.44771525 5.44771525,5 6,5 L6,5 Z" id="path-5"></path>
        <path d="M10.5,2 C15.1944204,2 19,5.80557963 19,10.5 C19,12.4865245 18.3185332,14.3138839 17.1766205,15.7610573 L21.7071068,20.2928932 C22.0976311,20.6834175 22.0976311,21.3165825 21.7071068,21.7071068 C21.3165825,22.0976311 20.6834175,22.0976311 20.2928932,21.7071068 L20.2928932,21.7071068 L15.7610573,17.1766205 C14.3138839,18.3185332 12.4865245,19 10.5,19 C5.80557963,19 2,15.1944204 2,10.5 C2,5.80557963 5.80557963,2 10.5,2 Z M10.5,4 C6.91014913,4 4,6.91014913 4,10.5 C4,14.0898509 6.91014913,17 10.5,17 C12.2704128,17 13.8755097,16.2921984 15.0477521,15.1441339 L15.0928932,15.0928932 C15.1090201,15.0767663 15.1255608,15.0613054 15.1424811,15.0465104 C16.2921984,13.8755097 17,12.2704128 17,10.5 C17,6.91014913 14.0898509,4 10.5,4 Z" id="path-7"></path>
        <path d="M4.95354593,10.7113521 L10.2427326,12.0336488 C10.6010178,12.1232201 10.8807682,12.4029705 10.9703395,12.7612557 L12.2926362,18.0504424 L18.8978174,4.10617092 L4.95354593,10.7113521 Z M9.17557587,13.8284124 L1.75766137,11.9739338 C0.846722103,11.746199 0.72352368,10.5020157 1.57211065,10.1000535 L20.5721107,1.10005348 C21.4212859,0.697812594 22.3061757,1.58270246 21.9039348,2.43187766 L12.9039348,21.4318777 C12.5019726,22.2804646 11.2577893,22.1572662 11.0300545,21.2463269 L9.17557587,13.8284124 Z" id="path-9"></path>
        <path d="M9.00192227,12.8261466 L1.23835232,3.64572512 C0.68869301,2.99575299 1.15069426,2 2.00192227,2 L22.0019223,2 C22.8531503,2 23.3151515,2.99575299 22.7654922,3.64572512 L15.0019223,12.8261466 L15.0019223,21 C15.0019223,21.743382 14.2196098,22.2268777 13.5547087,21.8944272 L9.55470867,19.8944272 C9.21592465,19.7250352 9.00192227,19.3787721 9.00192227,19 L9.00192227,12.8261466 Z M19.8466186,4 L4.15722594,4 L10.7654922,11.8142749 C10.9181565,11.9948003 11.0019223,12.223577 11.0019223,12.46 L11.0019223,18.381966 L13.0019223,19.381966 L13.0019223,12.46 C13.0019223,12.223577 13.0856881,11.9948003 13.2383523,11.8142749 L19.8466186,4 Z" id="path-11"></path>
        <path d="M12,0 C17.5228474,0 22,4.47715241 22,10 C22,13.3716045 20.1975984,16.6760073 17.2259527,19.8127445 C16.2070021,20.8883035 15.118253,21.8681776 14.0291768,22.735405 C13.6473986,23.0394136 13.2921737,23.3081093 12.9722093,23.5391947 C12.777224,23.6800174 12.6351454,23.77842 12.5547002,23.8320502 C12.2188008,24.0559831 11.7811992,24.0559831 11.4452998,23.8320502 C11.3648546,23.77842 11.222776,23.6800174 11.0277907,23.5391947 C10.7078263,23.3081093 10.3526014,23.0394136 9.97082322,22.735405 C8.88174698,21.8681776 7.7929979,20.8883035 6.77404732,19.8127445 C3.80240157,16.6760073 2,13.3716045 2,10 C2,4.47715241 6.47715256,0 12,0 Z M12,2 C7.58172205,2 4,5.58172193 4,10 C4,12.7533953 5.57259843,15.6364924 8.22595268,18.4372552 C9.1757521,19.4398213 10.196378,20.3583846 11.2166768,21.1708447 C11.4951711,21.3926087 11.7576885,21.5936102 12,21.7726167 C12.2423115,21.5936102 12.5048289,21.3926087 12.7833232,21.1708447 C13.803622,20.3583846 14.8242479,19.4398213 15.7740473,18.4372552 C18.4274016,15.6364924 20,12.7533953 20,10 C20,5.58172193 16.418278,2 12,2 Z M12,5.99999987 C14.209139,5.99999987 16,7.79086087 16,9.99999987 C16,12.2091389 14.209139,13.9999999 12,13.9999999 C9.790861,13.9999999 8,12.2091389 8,9.99999987 C8,7.79086087 9.790861,5.99999987 12,5.99999987 Z M12,7.99999987 C10.8954305,7.99999987 10,8.89543037 10,9.99999987 C10,11.1045694 10.8954305,11.9999999 12,11.9999999 C13.1045695,11.9999999 14,11.1045694 14,9.99999987 C14,8.89543037 13.1045695,7.99999987 12,7.99999987 Z" id="path-13"></path>
        <path d="M24,2 L24,18 C24,18.3588568 23.8077139,18.6902003 23.4961389,18.8682431 L16.4961389,22.8682431 L16.4712655,22.8822141 C16.4500414,22.8935754 16.4283596,22.9041933 16.4062548,22.9140328 L16.4961389,22.8682431 C16.4551591,22.8916602 16.41291,22.9119674 16.3697252,22.9291555 C16.3406577,22.9410127 16.3105864,22.9513706 16.279906,22.9602981 C16.2734921,22.961911 16.2674692,22.9636027 16.2614342,22.965237 C16.233994,22.9729037 16.2057021,22.9792581 16.1769855,22.9843866 C16.1617132,22.9869674 16.1463698,22.9893575 16.1309875,22.9913886 C16.0879989,22.9971147 16.0443364,23 16,23 L16.0809613,22.9967185 C16.0575675,22.9986177 16.0341169,22.999693 16.0106542,22.9999434 L16,23 C15.9888734,23 15.9777892,22.9998183 15.9667503,22.9994576 C15.9412711,22.9986196 15.9151488,22.9967433 15.8891079,22.99384 C15.8686511,22.9916675 15.8482212,22.9887694 15.8279996,22.9852639 C15.8125655,22.9824194 15.7969874,22.9793206 15.7814703,22.9758463 C15.7020466,22.9583476 15.626173,22.9311921 15.5551027,22.8958282 C15.5547373,22.8954007 15.5537616,22.8949148 15.5527864,22.8944272 L8.03146931,19.1337686 L1.49613894,22.8682431 C0.829482172,23.2491899 0,22.7678227 0,22 L0,6 C0,5.64114315 0.192286064,5.30979971 0.503861062,5.13175686 L7.50386106,1.13175686 L7.52873448,1.1177859 C7.5499586,1.10642456 7.57164044,1.09580673 7.59374519,1.08596722 L7.50386106,1.13175686 C7.54484089,1.10833981 7.58709005,1.08803261 7.6302748,1.0708445 C7.65934231,1.05898725 7.68941362,1.04862936 7.72009403,1.03970188 C7.72650795,1.03808904 7.73253079,1.03639727 7.73856579,1.03476301 C7.76600598,1.02709629 7.79429795,1.02074192 7.82301454,1.01561336 C7.83828676,1.01303264 7.85363024,1.01064254 7.86901252,1.0086114 C7.91200113,1.00288534 7.95566361,1 8,1 L7.91803612,1.00336336 C7.94209662,1.00138577 7.96621796,1.00027967 7.9903513,1.0000464 L8,1 C8.01156261,1 8.02307939,1.00019624 8.03454718,1.00058557 C8.06006842,1.00147732 8.0855189,1.00333112 8.11089211,1.00615995 C8.13131534,1.00832771 8.15176215,1.01122773 8.17200039,1.01473613 C8.18743454,1.01758056 8.20301262,1.02067942 8.21852966,1.02415366 C8.29795343,1.04165244 8.37382701,1.06880789 8.44489733,1.10417184 C8.44526266,1.10459933 8.44623842,1.10508522 8.4472136,1.10557281 L15.9685307,4.86623136 L22.5038611,1.13175686 C23.1705178,0.750810134 24,1.23217733 24,2 Z M9,3.61752235 L9,17.3815224 L15,20.3815224 L15,6.61752235 L9,3.61752235 Z M7,3.72252235 L2,6.58032254 L2,20.2768203 L7,17.4185224 L7,3.72252235 Z M22,3.72317968 L17,6.57952235 L17,20.2755224 L22,17.4196775 L22,3.72317968 Z" id="path-15"></path>
        <path d="M12.3385616,3.88305777 C13.5095651,2.6773866 15.0981167,2 16.7545545,2 C18.4109924,2 19.999544,2.6773866 21.1705475,3.88305777 C22.341782,5.08783498 23,6.72264823 23,8.42732469 C23,10.1320012 22.341782,11.7668144 21.1703881,12.9717557 L12.6789672,21.7104629 C12.3038421,22.0965124 11.6956441,22.0965124 11.320519,21.7104629 L2.82909808,12.9717557 C0.390300616,10.4619357 0.390300645,6.39271366 2.82909814,3.88289375 C5.26789564,1.37307383 9.22196762,1.3730738 11.6607652,3.88289369 L11.9997431,4.23174331 L12.3385616,3.88305777 Z M11.9997431,19.6134496 L18.7937378,12.6216009 L19.8120993,11.5735828 C20.6231746,10.7392791 21.0788641,9.60748533 21.0788641,8.42732469 C21.0788641,7.24716406 20.6231746,6.11537028 19.8120993,5.28106658 C19.0010857,4.44604303 17.9013192,3.97708307 16.7545545,3.97708307 C15.6077899,3.97708307 14.5080234,4.44604303 13.6971693,5.28090254 L12.6789672,6.32875657 C12.3038421,6.71480605 11.6956441,6.71480605 11.320519,6.32875657 L10.3023169,5.28090255 C8.61376964,3.54318162 5.87609364,3.54318164 4.18754639,5.2809026 C2.49899915,7.01862355 2.49899912,9.83602588 4.18754634,11.5737468 L11.9997431,19.6134496 Z" id="path-17"></path>
        <path d="M8.24682697,7.3464661 L11.104381,1.55737608 C11.4712164,0.814207972 12.5309603,0.814207972 12.8977957,1.55737608 L15.7553497,7.3464661 L22.1457165,8.28051393 C22.9656312,8.40035674 23.2924147,9.40819801 22.6988211,9.98635811 L18.0756101,14.4893656 L19.166697,20.8509567 C19.3068155,21.6679189 18.4492666,22.2908819 17.7156371,21.9050735 L12.0010883,18.8998497 L6.28653961,21.9050735 C5.55291004,22.2908819 4.69536119,21.6679189 4.83547972,20.8509567 L5.92656655,14.4893656 L1.30335554,9.98635811 C0.709762006,9.40819801 1.03654545,8.40035674 1.85646012,8.28051393 L8.24682697,7.3464661 Z" id="path-19"></path>
        <path d="M5.02107692,14.3120367 C7.02946154,14.3120367 8.66330769,15.871156 8.66353846,17.7874128 C8.66353846,20.7450275 5.75688462,23.5524771 5.63319231,23.6706055 C5.47084615,23.8255046 5.25069231,23.9124771 5.02119231,23.9124771 C4.79157692,23.9124771 4.57153846,23.8255046 4.40919231,23.6706055 C4.28538462,23.5525872 1.37861538,20.7450275 1.37861538,17.7874128 C1.37861538,15.871156 3.01257692,14.3120367 5.02107692,14.3120367 Z M5.02107692,15.9634128 C3.96703846,15.9634128 3.10938462,16.7816147 3.10938462,17.7874128 C3.10938462,19.3369541 4.27373077,20.9572844 5.02107692,21.8374679 C5.76819231,20.9572844 6.93253846,19.3369541 6.93253846,17.7874128 C6.93253846,16.7817248 6.07511538,15.9634128 5.02107692,15.9634128 Z M13.6572692,3.00341284 C14.1353077,3.00341284 14.5580206,3.53781999 14.5580206,3.99381999 C14.5580206,4.44981999 14.1353077,4.97103927 13.6572692,4.97103927 L13.6572692,4.97103927 L5.14315385,4.97103927 C3.27207692,4.97103927 1.98474977,6.1066789 1.98474977,7.89137615 C1.98474977,9.6773945 3.27207692,11.1304954 5.14315385,11.1304954 L5.14315385,11.1304954 L18.7651154,11.1304954 C21.5904231,11.1304954 24,13.2667156 24,15.9634128 C24,18.6586789 21.5904231,20.9090642 18.7651154,20.9090642 L18.7651154,20.9090642 L10.1775,20.9090642 C9.69957692,20.9090642 9.27057061,20.456 9.27057061,20 C9.27057061,19.544 9.69957692,19.1122569 10.1775,19.1122569 L10.1775,19.1122569 L18.8145,19.1122569 C20.6855769,19.1122569 22.1583462,17.8057982 22.1583462,16.0211009 C22.1583462,14.2349725 20.6361923,12.9566124 18.7651154,12.9566124 L18.7651154,12.9566124 L5.14315385,12.9566124 C2.31784615,12.9566124 0.0191538462,10.5879633 0.0191538462,7.89137615 C0.0191538462,5.19611009 2.31784615,3.00341284 5.14315385,3.00341284 L5.14315385,3.00341284 Z M18.8138077,-2.62723177e-12 C20.823,-2.62723177e-12 22.4576538,1.55900917 22.4576538,3.47526606 C22.4576538,6.43310092 19.5493846,9.24055046 19.4255769,9.35856881 C19.2566538,9.51963303 19.0352308,9.60022018 18.8138077,9.60022018 C18.5922692,9.60022018 18.3708462,9.51963303 18.2020385,9.35834862 C18.0781154,9.24033028 15.1713462,6.43288073 15.1713462,3.47515596 C15.1713462,1.55900917 16.8053077,-2.62723177e-12 18.8138077,-2.62723177e-12 Z M18.8138077,1.65137615 C17.7596538,1.65137615 16.902,2.46957798 16.9021154,3.47515596 C16.9021154,5.02491743 18.0666923,6.6453578 18.8139231,7.52543119 C19.5615,6.6453578 20.7268846,5.02480734 20.7268846,3.47515596 C20.7268846,2.46957798 19.8687692,1.65137615 18.8138077,1.65137615 Z" id="path-21"></path>
        <path d="M12,1 C18.0751322,1 23,5.92486775 23,12 C23,18.0751322 18.0751322,23 12,23 C5.92486775,23 1,18.0751322 1,12 C1,5.92486775 5.92486775,1 12,1 Z M12,3 C7.02943725,3 3,7.02943725 3,12 C3,16.9705627 7.02943725,21 12,21 C16.9705627,21 21,16.9705627 21,12 C21,7.02943725 16.9705627,3 12,3 Z M12,5 C12.5522847,5 13,5.44771525 13,6 L13,6 L13,11.5857864 L15.7071068,14.2928932 C16.0976311,14.6834175 16.0976311,15.3165825 15.7071068,15.7071068 C15.3165825,16.0976311 14.6834175,16.0976311 14.2928932,15.7071068 L14.2928932,15.7071068 L11.2928932,12.7071068 C11.1053568,12.5195704 11,12.2652165 11,12 L11,12 L11,6 C11,5.44771525 11.4477153,5 12,5 Z" id="path-23"></path>
        <path d="M5.29289322,5.29289322 C5.68341751,4.90236893 6.31658249,4.90236893 6.70710678,5.29289322 L6.70710678,5.29289322 L12,10.585 L17.2928932,5.29289322 C17.6533772,4.93240926 18.2206082,4.90467972 18.6128994,5.20970461 L18.7071068,5.29289322 C19.0976311,5.68341751 19.0976311,6.31658249 18.7071068,6.70710678 L18.7071068,6.70710678 L13.415,12 L18.7071068,17.2928932 C19.0675907,17.6533772 19.0953203,18.2206082 18.7902954,18.6128994 L18.7071068,18.7071068 C18.3165825,19.0976311 17.6834175,19.0976311 17.2928932,18.7071068 L17.2928932,18.7071068 L12,13.415 L6.70710678,18.7071068 C6.34662282,19.0675907 5.77939176,19.0953203 5.38710056,18.7902954 L5.29289322,18.7071068 C4.90236893,18.3165825 4.90236893,17.6834175 5.29289322,17.2928932 L5.29289322,17.2928932 L10.585,12 L5.29289322,6.70710678 C4.93240926,6.34662282 4.90467972,5.77939176 5.20970461,5.38710056 Z" id="path-25"></path>
        <path d="M8.24682697,7.3464661 L11.104381,1.55737608 C11.4037521,1.00228043 11.8354854,1.00228043 12,1.00228043 L12.0010883,18.8998497 L6.28653961,21.9050735 C5.55291004,22.2908819 4.69536119,21.6679189 4.83547972,20.8509567 L5.92656655,14.4893656 L1.30335554,9.98635811 C0.709762006,9.40819801 1.03654545,8.40035674 1.85646012,8.28051393 L8.24682697,7.3464661 Z" id="path-27"></path>
        <path d="M12,4 C12.5522847,4 13,4.44771525 13,5 L13,5 L13,11 L19,11 C19.5128358,11 19.9355072,11.3860402 19.9932723,11.8833789 L20,12 C20,12.5522847 19.5522847,13 19,13 L19,13 L13,13 L13,19 C13,19.5128358 12.6139598,19.9355072 12.1166211,19.9932723 L12,20 C11.4477153,20 11,19.5522847 11,19 L11,19 L11,13 L5,13 C4.48716416,13 4.06449284,12.6139598 4.00672773,12.1166211 L4,12 C4,11.4477153 4.44771525,11 5,11 L5,11 L11,11 L11,5 C11,4.48716416 11.3860402,4.06449284 11.8833789,4.00672773 Z" id="path-29"></path>
        <path d="M12.3385616,3.88305777 C13.5095651,2.6773866 15.0981167,2 16.7545545,2 C18.4109924,2 19.999544,2.6773866 21.1705475,3.88305777 C22.341782,5.08783498 23,6.72264823 23,8.42732469 C23,10.1320012 22.341782,11.7668144 21.1703881,12.9717557 L12.6789672,21.7104629 C12.3038421,22.0965124 11.6956441,22.0965124 11.320519,21.7104629 L2.82909808,12.9717557 C0.390300616,10.4619357 0.390300645,6.39271366 2.82909814,3.88289375 C5.26789564,1.37307383 9.22196762,1.3730738 11.6607652,3.88289369 L11.9997431,4.23174331 L12.3385616,3.88305777 Z" id="path-31"></path>
    </defs>
    <g id="Asset-Artboard-Page" stroke="none" stroke-width="1" fill="none" fill-rule="evenodd">
        <g id="icons-sprite">
            <g id="arrow-right">
                <mask id="mask-2" fill="white">
                    <use xlink:href="#path-1"></use>
                </mask>
                <use id="Combined-Shape" fill="#000000" fill-rule="nonzero" xlink:href="#path-1"></use>
                <g id="🎨Color-COLOR/-black" mask="url(#mask-2)" fill="#2E2E2E">
                    <rect id="Rectangle" x="0" y="0" width="24" height="24"></rect>
                </g>
            </g>
            <g id="arrow-left" transform="translate(0.000000, 24.000000)">
                <mask id="mask-4" fill="white">
                    <use xlink:href="#path-3"></use>
                </mask>
                <use id="Combined-Shape" fill="#000000" fill-rule="nonzero" xlink:href="#path-3"></use>
                <g id="COLOR/-black" mask="url(#mask-4)" fill="#2E2E2E">
                    <rect id="Rectangle" x="0" y="0" width="24" height="24"></rect>
                </g>
            </g>
            <g id="burger" transform="translate(0.000000, 48.000000)">
                <mask id="mask-6" fill="white">
                    <use xlink:href="#path-5"></use>
                </mask>
                <use id="Combined-Shape" fill="#000000" fill-rule="nonzero" xlink:href="#path-5"></use>
                <g id="COLOR/-black" mask="url(#mask-6)" fill="#2E2E2E">
                    <rect id="Rectangle" x="0" y="0" width="24" height="24"></rect>
                </g>
            </g>
            <g id="search" transform="translate(0.000000, 72.000000)">
                <mask id="mask-8" fill="white">
                    <use xlink:href="#path-7"></use>
                </mask>
                <use id="Combined-Shape" fill="#000000" fill-rule="nonzero" xlink:href="#path-7"></use>
                <g id="COLOR/-black" mask="url(#mask-8)" fill="#2E2E2E">
                    <rect id="Rectangle" x="0" y="0" width="24" height="24"></rect>
                </g>
            </g>
            <g id="navigation" transform="translate(0.000000, 96.000000)">
                <mask id="mask-10" fill="white">
                    <use xlink:href="#path-9"></use>
                </mask>
                <use id="Shape" fill="#000000" fill-rule="nonzero" xlink:href="#path-9"></use>
                <g id="COLOR/-black" mask="url(#mask-10)" fill="#2E2E2E">
                    <rect id="Rectangle" x="0" y="0" width="24" height="24"></rect>
                </g>
            </g>
            <g id="filter" transform="translate(0.000000, 120.000000)">
                <mask id="mask-12" fill="white">
                    <use xlink:href="#path-11"></use>
                </mask>
                <use id="Shape" fill="#000000" fill-rule="nonzero" xlink:href="#path-11"></use>
                <g id="COLOR/-black" mask="url(#mask-12)" fill="#2E2E2E">
                    <rect id="Rectangle" x="0" y="0" width="24" height="24"></rect>
                </g>
            </g>
            <g id="map-pin" transform="translate(0.000000, 144.000000)">
                <mask id="mask-14" fill="white">
                    <use xlink:href="#path-13"></use>
                </mask>
                <use id="Combined-Shape" fill="#000000" fill-rule="nonzero" xlink:href="#path-13"></use>
                <g id="COLOR/-black" mask="url(#mask-14)" fill="#2E2E2E">
                    <rect id="Rectangle" x="0" y="0" width="24" height="24"></rect>
                </g>
            </g>
            <g id="map" transform="translate(0.000000, 168.000000)">
                <mask id="mask-16" fill="white">
                    <use xlink:href="#path-15"></use>
                </mask>
                <g id="Combined-Shape" fill-rule="nonzero"></g>
                <g id="COLOR/-black" mask="url(#mask-16)" fill="#2E2E2E">
                    <rect id="Rectangle" x="0" y="0" width="24" height="24"></rect>
                </g>
            </g>
            <g id="heart-1" transform="translate(0.000000, 192.000000)">
                <mask id="mask-18" fill="white">
                    <use xlink:href="#path-17"></use>
                </mask>
                <use id="Shape" fill="#000000" fill-rule="nonzero" xlink:href="#path-17"></use>
                <g id="COLOR/-black" mask="url(#mask-18)" fill="#2E2E2E">
                    <rect id="Rectangle" x="0" y="0" width="24" height="24"></rect>
                </g>
            </g>
            <g id="star-1" transform="translate(0.000000, 240.000000)">
                <mask id="mask-20" fill="white">
                    <use xlink:href="#path-19"></use>
                </mask>
                <use id="Shape" fill="#000000" fill-rule="nonzero" xlink:href="#path-19"></use>
                <g id="COLOR/-black" mask="url(#mask-20)" fill="#2E2E2E">
                    <rect id="Rectangle" x="0" y="0" width="24" height="24"></rect>
                </g>
            </g>
            <g id="route" transform="translate(0.000000, 264.000000)">
                <g id="route-(1)">
                    <mask id="mask-22" fill="white">
                        <use xlink:href="#path-21"></use>
                    </mask>
                    <use id="Combined-Shape" fill="#B1B1B1" fill-rule="nonzero" xlink:href="#path-21"></use>
                    <g id="COLOR/-black" mask="url(#mask-22)" fill="#2E2E2E">
                        <rect id="Rectangle" x="0" y="0" width="24" height="24"></rect>
                    </g>
                </g>
            </g>
            <g id="clock" transform="translate(0.000000, 288.000000)">
                <mask id="mask-24" fill="white">
                    <use xlink:href="#path-23"></use>
                </mask>
                <use id="Combined-Shape" fill="#000000" fill-rule="nonzero" xlink:href="#path-23"></use>
                <g id="COLOR/-black" mask="url(#mask-24)" fill="#2E2E2E">
                    <rect id="Rectangle" x="0" y="0" width="24" height="24"></rect>
                </g>
            </g>
            <g id="x" transform="translate(0.000000, 312.000000)">
                <mask id="mask-26" fill="white">
                    <use xlink:href="#path-25"></use>
                </mask>
                <use id="Combined-Shape" fill="#000000" fill-rule="nonzero" xlink:href="#path-25"></use>
                <g id="COLOR/-black" mask="url(#mask-26)" fill="#2E2E2E">
                    <rect id="Rectangle" x="0" y="0" width="24" height="24"></rect>
                </g>
            </g>
            <g id="star-2" transform="translate(0.000000, 336.000000)">
                <path d="M8.24682697,7.3464661 L11.104381,1.55737608 C11.4712164,0.814207972 12.5309603,0.814207972 12.8977957,1.55737608 L15.7553497,7.3464661 L22.1457165,8.28051393 C22.9656312,8.40035674 23.2924147,9.40819801 22.6988211,9.98635811 L18.0756101,14.4893656 L19.166697,20.8509567 C19.3068155,21.6679189 18.4492666,22.2908819 17.7156371,21.9050735 L12.0010883,18.8998497 L6.28653961,21.9050735 C5.55291004,22.2908819 4.69536119,21.6679189 4.83547972,20.8509567 L5.92656655,14.4893656 L1.30335554,9.98635811 C0.709762006,9.40819801 1.03654545,8.40035674 1.85646012,8.28051393 L8.24682697,7.3464661 Z" id="Path" fill="#D7D7D7" fill-rule="nonzero"></path>
                <mask id="mask-28" fill="white">
                    <use xlink:href="#path-27"></use>
                </mask>
                <use id="Shape" fill="#000000" fill-rule="nonzero" xlink:href="#path-27"></use>
                <g id="COLOR/-black" mask="url(#mask-28)" fill="#2E2E2E">
                    <rect id="Rectangle" x="0" y="0" width="24" height="24"></rect>
                </g>
            </g>
            <g id="plus" transform="translate(0.000000, 360.000000)">
                <mask id="mask-30" fill="white">
                    <use xlink:href="#path-29"></use>
                </mask>
                <use id="Combined-Shape" fill="#000000" fill-rule="nonzero" xlink:href="#path-29"></use>
                <g id="COLOR/-black" mask="url(#mask-30)" fill="#2E2E2E">
                    <rect id="Rectangle" x="0" y="0" width="24" height="24"></rect>
                </g>
            </g>
            <g id="heart-2" transform="translate(0.000000, 216.000000)">
                <mask id="mask-32" fill="white">
                    <use xlink:href="#path-31"></use>
                </mask>
                <use id="Shape" fill="#000000" fill-rule="nonzero" xlink:href="#path-31"></use>
                <g id="COLOR/-black" mask="url(#mask-32)" fill="#2E2E2E">
                    <rect id="Rectangle" x="0" y="0" width="24" height="24"></rect>
                </g>
            </g>
        </g>
    </g>
</svg>